<?xml version="1.0"?>
<svg xmlns="http://www.w3.org/2000/svg" id="Layer_1" data-name="Layer 1" width="48" height="48" viewBox="0 0 48 48"><path d="M45,40H44V11a1,1,0,0,0-1-1H29a1,1,0,0,0,0,2H42v3H33a1,1,0,0,0-1,1V26a1,1,0,0,0,1,1h9V40H38V32a1,1,0,0,0-1-1H31a1,1,0,0,0-1,1v8H26V5a1,1,0,0,0-1-1H9A5.006,5.006,0,0,0,4,9V40H3a1,1,0,0,0,0,2H45a1,1,0,0,0,0-2ZM34,17h8v3H34Zm0,8V22h8v3Zm-2,8h4v7H32ZM6,22h8v3H6Zm8-2H6V12h8ZM6,27h9a1,1,0,0,0,1-1V11a1,1,0,0,0-1-1H6V9A3,3,0,0,1,9,6H24V40H20V32a1,1,0,0,0-1-1H11a1,1,0,0,0-1,1v8H6ZM18,40H12V33h6Z"/></svg>
