<?xml version="1.0" encoding="UTF-8" standalone="no"?>
<!-- Created with Inkscape (http://www.inkscape.org/) -->

<svg
   version="1.1"
   id="svg4068"
   xml:space="preserve"
   width="682.66669"
   height="682.66669"
   viewBox="0 0 682.66669 682.66669"
   xmlns="http://www.w3.org/2000/svg"
   xmlns:svg="http://www.w3.org/2000/svg"><defs
     id="defs4072"><clipPath
       clipPathUnits="userSpaceOnUse"
       id="clipPath4082"><path
         d="M 0,512 H 512 V 0 H 0 Z"
         id="path4080" /></clipPath></defs><g
     id="g4074"
     transform="matrix(1.3333333,0,0,-1.3333333,0,682.66667)"><g
       id="g4076"><g
         id="g4078"
         clip-path="url(#clipPath4082)"><g
           id="g4084"
           transform="translate(48.1578,22.1854)"><path
             d="M 0,0 131.094,131.094"
             style="fill:none;stroke:#000000;stroke-width:20;stroke-linecap:round;stroke-linejoin:round;stroke-miterlimit:10;stroke-dasharray:none;stroke-opacity:1"
             id="path4086" /></g><g
           id="g4088"
           transform="translate(463.8422,22.1854)"><path
             d="M 0,0 -132.606,132.606"
             style="fill:none;stroke:#000000;stroke-width:20;stroke-linecap:round;stroke-linejoin:round;stroke-miterlimit:10;stroke-dasharray:none;stroke-opacity:1"
             id="path4090" /></g><g
           id="g4092"
           transform="translate(300.9998,10.0275)"><path
             d="M 0,0 H 133.491 C 156.416,0 175,18.584 175,41.509 V 273.38 c 0,11.004 -4.37,21.559 -12.149,29.342 L 126.92,338.67"
             style="fill:none;stroke:#000000;stroke-width:20;stroke-linecap:round;stroke-linejoin:round;stroke-miterlimit:10;stroke-dasharray:none;stroke-opacity:1"
             id="path4094" /></g><g
           id="g4096"
           transform="translate(83.7613,348.2663)"><path
             d="m 0,0 -35.595,-35.513 c -7.79,-7.786 -12.166,-18.347 -12.166,-29.361 v -231.855 c 0,-22.925 18.584,-41.51 41.509,-41.51 h 133.49"
             style="fill:none;stroke:#000000;stroke-width:20;stroke-linecap:round;stroke-linejoin:round;stroke-miterlimit:10;stroke-dasharray:none;stroke-opacity:1"
             id="path4098" /></g><g
           id="g4100"
           transform="translate(328.6562,448.0259)"><path
             d="m 0,0 -53.903,53.935 c -14.548,0.005 -22.705,0.007 -37.253,0.012 L -145.134,0.001"
             style="fill:none;stroke:#000000;stroke-width:20;stroke-linecap:round;stroke-linejoin:round;stroke-miterlimit:10;stroke-dasharray:none;stroke-opacity:1"
             id="path4102" /></g><g
           id="g4104"
           transform="translate(471.8489,296.4425)"><path
             d="m 0,0 -186.374,-186.489 c -16.206,-16.215 -42.488,-16.223 -58.703,-0.017 L -431.006,-0.691"
             style="fill:none;stroke:#000000;stroke-width:20;stroke-linecap:round;stroke-linejoin:round;stroke-miterlimit:10;stroke-dasharray:none;stroke-opacity:1"
             id="path4106" /></g><g
           id="g4108"
           transform="translate(268.1039,259.5586)"><path
             d="m 0,0 h -15.908 c -23.313,0 -42.211,18.899 -42.211,42.211 v 0.001 c 0,23.312 18.898,42.211 42.211,42.211 v 0 c 21.9,0 39.653,-17.753 39.653,-39.653 V 21.622 c 0,-13.411 10.872,-24.283 24.284,-24.283 v 0 c 13.411,0 24.283,10.872 24.283,24.283 v 20.493 c 0,46.622 -37.794,84.416 -84.416,84.416 v 0 c -46.622,0 -84.416,-37.794 -84.416,-84.416 v 0 c 0,-47.335 38.373,-85.709 85.709,-85.709 h 60.778"
             style="fill:none;stroke:#000000;stroke-width:20;stroke-linecap:round;stroke-linejoin:round;stroke-miterlimit:10;stroke-dasharray:none;stroke-opacity:1"
             id="path4110" /></g><g
           id="g4112"
           transform="translate(84,252.7522)"><path
             d="m 0,0 v 165.275 c 0,16.569 13.431,30 30,30 h 284 c 16.569,0 30,-13.431 30,-30 v -162"
             style="fill:none;stroke:#000000;stroke-width:20;stroke-linecap:round;stroke-linejoin:round;stroke-miterlimit:10;stroke-dasharray:none;stroke-opacity:1"
             id="path4114" /></g><g
           id="g4116"
           transform="translate(256,10.0275)"><path
             d="M 0,0 V 0"
             style="fill:none;stroke:#000000;stroke-width:20;stroke-linecap:round;stroke-linejoin:round;stroke-miterlimit:10;stroke-dasharray:none;stroke-opacity:1"
             id="path4118" /></g></g></g></g></svg>
