<svg clip-rule="evenodd" fill-rule="evenodd" stroke-linejoin="round" stroke-miterlimit="2" viewBox="0 0 32 32" xmlns="http://www.w3.org/2000/svg" xmlns:serif="http://www.serif.com/"><g id="balance_wallet_payment_cash" fill-rule="nonzero"><path d="m28 15h-7c-2.194 0-4 1.806-4 4s1.806 4 4 4h4v3c0 .549-.451 1-1 1h-16c-1.646 0-3-1.354-3-3v-15c0-1.646 1.354-3 3-3h2c.549 0 1-.451 1-1s-.451-1-1-1h-2c-2.743 0-5 2.257-5 5v15c0 2.743 2.257 5 5 5h16c1.646 0 3-1.354 3-3v-3h1c.549 0 1-.451 1-1v-6c0-.549-.451-1-1-1zm-1 6h-6c-1.097 0-2-.903-2-2s.903-2 2-2h6z"/><path d="m7.64 8.07c-1.116.487-.747 1.93.36 1.93h16c.549 0 1 .451 1 1v1c0 .549.451 1 1 1s1-.451 1-1v-1c-.001-.795-.317-1.558-.88-2.12-.562-.563-1.325-.879-2.12-.88h-.32l-1.75-4.37c-.203-.505-.783-.757-1.29-.56zm13.88-.07h-8.13l7.05-2.71z"/></g></svg>